<svg width="64" height="24" viewBox="0 0 64 24" fill="none" xmlns="http://www.w3.org/2000/svg">
<g clip-path="url(#clip0_2_103)">
<path d="M47.1023 19.7015L48.9511 15.0448H54.2895L51.7561 7.98086L54.9246 9.15527e-05L64 24H57.3072L55.7564 19.7015H47.1023Z" fill="#011063"/>
<path d="M41.3925 24.0001L51.1079 0.00012207L44.6669 0.000153961L38.021 15.5095L33.2951 0.000185852H28.3443L23.2699 15.5095L19.6913 8.44219L16.4529 18.3795L19.7409 24.0001H26.0796L30.6651 10.0916L35.0371 24.0001H41.3925Z" fill="#8CC7FA"/>
<path d="M6.11397 15.7614H10.0813C11.283 15.7614 12.3532 15.6278 13.2917 15.3606L14.3177 12.2123L17.1852 3.41333C16.9667 3.0684 16.7172 2.74227 16.4369 2.43499C14.9646 0.811827 12.8105 0.000274658 9.97449 0.000274658H0V24.0002H6.11397V15.7614ZM11.3653 5.5217C11.9404 6.09817 12.2279 6.8696 12.2279 7.83606C12.2279 8.80992 11.975 9.5823 11.4693 10.1532C10.9149 10.7875 9.89397 11.1047 8.40669 11.1047H6.11397V4.65693H8.42354C9.80967 4.65693 10.7903 4.94519 11.3653 5.5217Z" fill="#011063"/>
</g>
<defs>
<clipPath id="clip0_2_103">
<rect width="64" height="24" fill="white"/>
</clipPath>
</defs>
</svg>
